<?xml version="1.0" standalone="no"?>
<!DOCTYPE svg PUBLIC "-//W3C//DTD SVG 20010904//EN"
 "http://www.w3.org/TR/2001/REC-SVG-20010904/DTD/svg10.dtd">
<svg version="1.0" xmlns="http://www.w3.org/2000/svg"
 width="1092.000000pt" height="1092.000000pt" viewBox="0 0 1092.000000 1092.000000"
 preserveAspectRatio="xMidYMid meet">
<metadata>
Created by potrace 1.11, written by Peter Selinger 2001-2013
</metadata>
<g transform="translate(0.000000,1092.000000) scale(0.100000,-0.100000)"
fill="#000000" stroke="none">
<path d="M0 5460 l0 -5460 5460 0 5460 0 0 5460 0 5460 -5460 0 -5460 0 0
-5460z m5465 3540 c583 -34 1029 -138 1452 -340 806 -384 1346 -1081 1568
-2025 164 -696 159 -1636 -11 -2320 -71 -282 -145 -487 -264 -730 -139 -284
-299 -516 -498 -725 -445 -469 -1015 -763 -1714 -885 -346 -61 -268 -58 -2045
-62 l-1633 -4 0 3551 0 3550 1488 0 c857 0 1559 -4 1657 -10z"/>
<path d="M4122 5458 l3 -2093 535 0 c457 1 552 3 650 18 395 60 680 197 925
442 299 298 463 698 520 1268 18 173 21 605 5 736 -43 375 -99 579 -225 836
-255 515 -692 805 -1320 875 -49 5 -316 10 -593 10 l-502 0 2 -2092z"/>
</g>
</svg>
